<?xml version="1.0" encoding="UTF-8" standalone="no"?>
<svg
   xmlns:dc="http://purl.org/dc/elements/1.1/"
   xmlns:cc="http://creativecommons.org/ns#"
   xmlns:rdf="http://www.w3.org/1999/02/22-rdf-syntax-ns#"
   xmlns:svg="http://www.w3.org/2000/svg"
   xmlns="http://www.w3.org/2000/svg"
   xmlns:sodipodi="http://sodipodi.sourceforge.net/DTD/sodipodi-0.dtd"
   xmlns:inkscape="http://www.inkscape.org/namespaces/inkscape"
   data-name="Layer 3"
   viewBox="0 0 492.49243 494.63113"
   x="0px"
   y="0px"
   version="1.1"
   id="svg10"
   sodipodi:docname="noun_Social_3096004.svg"
   width="492.49243"
   height="494.63113"
   inkscape:export-filename="E:\projects\sfz-aichach\dist\img\src\noun_Social_3096004.png"
   inkscape:export-xdpi="194.08401"
   inkscape:export-ydpi="194.08401"
   inkscape:version="0.92.4 (5da689c313, 2019-01-14)">
  <metadata
     id="metadata16">
    <rdf:RDF>
      <cc:Work
         rdf:about="">
        <dc:format>image/svg+xml</dc:format>
        <dc:type
           rdf:resource="http://purl.org/dc/dcmitype/StillImage" />
        <dc:title>features</dc:title>
      </cc:Work>
    </rdf:RDF>
  </metadata>
  <defs
     id="defs14" />
  <sodipodi:namedview
     pagecolor="#ffffff"
     bordercolor="#666666"
     borderopacity="1"
     objecttolerance="10"
     gridtolerance="10"
     guidetolerance="10"
     inkscape:pageopacity="0"
     inkscape:pageshadow="2"
     inkscape:window-width="3840"
     inkscape:window-height="2066"
     id="namedview12"
     showgrid="false"
     fit-margin-top="0"
     fit-margin-left="0"
     fit-margin-right="0"
     fit-margin-bottom="0"
     inkscape:zoom="1.5104"
     inkscape:cx="155.97487"
     inkscape:cy="202.17464"
     inkscape:window-x="-11"
     inkscape:window-y="-11"
     inkscape:window-maximized="1"
     inkscape:current-layer="svg10" />
  <title
     id="title2">features</title>
  <path
     d="m 426.04038,362.07367 a 65.75124,65.75124 0 0 0 -37.62622,11.78986 l -46.89355,-41.53388 a 128.68735,128.68735 0 0 0 0,-170.02514 l 46.89355,-41.53388 a 66.29545,66.29545 0 1 0 -14.574,-13.80762 l -46.499,41.18439 c -0.0596,0.0527 -0.11035,0.11115 -0.16821,0.16486 a 128.67593,128.67593 0 0 0 -163.3811,-1.36682 l -45.14234,-39.98273 a 66.18063,66.18063 0 1 0 -14.574,13.8078 l 45.10547,39.94995 a 128.71932,128.71932 0 0 0 0,173.19318 l -45.10547,39.95 a 66.29371,66.29371 0 1 0 14.574,13.80774 l 45.14234,-39.98273 a 128.67583,128.67583 0 0 0 163.3811,-1.36676 c 0.0579,0.0538 0.10864,0.11218 0.16821,0.16486 l 46.499,41.18432 a 66.1003,66.1003 0 1 0 52.20019,-25.59741 z m 0,-341.789056 a 46.13794,46.13794 0 1 1 -46.1387,46.13769 46.18992,46.18992 0 0 1 46.1387,-46.13769 z M 20.311865,66.422304 a 46.1377,46.1377 0 1 1 46.1377,46.138186 46.18992,46.18992 0 0 1 -46.1377,-46.138186 z M 244.6478,138.36615 a 108.89085,108.89085 0 0 1 81.06055,181.66571 c -3.7229,-25.79114 -21.22681,-46.63147 -43.97827,-53.18756 a 50.37494,50.37494 0 1 0 -74.16455,1.8e-4 c -22.75171,6.55616 -40.25537,27.39637 -43.97827,53.18738 A 108.89084,108.89084 0 0 1 244.6478,138.36615 Z m 0,124.79981 a 30.375,30.375 0 1 1 30.375,-30.375 30.40916,30.40916 0 0 1 -30.375,30.375 z M 66.449565,474.34955 A 46.13794,46.13794 0 1 1 112.58726,428.21137 46.19,46.19 0 0 1 66.449565,474.34955 Z M 181.1832,335.82208 a 9.94735,9.94735 0 0 0 1.66382,-5.51843 c 0,-25.15527 17.93848,-45.6206 39.98828,-45.6206 h 43.626 c 22.04883,0 39.9873,20.46533 39.9873,45.6206 a 9.94735,9.94735 0 0 0 1.66382,5.51843 108.7207,108.7207 0 0 1 -126.9292,0 z m 244.85718,138.52747 a 46.13794,46.13794 0 1 1 46.1377,-46.1382 46.19023,46.19023 0 0 1 -46.1377,46.1382 z"
     id="path4"
     inkscape:connector-curvature="0" />
</svg>
