<?xml version="1.0" encoding="UTF-8" standalone="no"?>
<svg
   xmlns:dc="http://purl.org/dc/elements/1.1/"
   xmlns:cc="http://creativecommons.org/ns#"
   xmlns:rdf="http://www.w3.org/1999/02/22-rdf-syntax-ns#"
   xmlns:svg="http://www.w3.org/2000/svg"
   xmlns="http://www.w3.org/2000/svg"
   xmlns:sodipodi="http://sodipodi.sourceforge.net/DTD/sodipodi-0.dtd"
   xmlns:inkscape="http://www.inkscape.org/namespaces/inkscape"
   version="1.1"
   preserveAspectRatio="none"
   x="0px"
   y="0px"
   viewBox="0 0 69.451721 79.451721"
   id="svg16"
   sodipodi:docname="noun_Download_2242559.svg"
   width="69.451721"
   height="79.451721"
   inkscape:version="0.92.4 (5da689c313, 2019-01-14)">
  <metadata
     id="metadata22">
    <rdf:RDF>
      <cc:Work
         rdf:about="">
        <dc:format>image/svg+xml</dc:format>
        <dc:type
           rdf:resource="http://purl.org/dc/dcmitype/StillImage" />
        <dc:title></dc:title>
      </cc:Work>
    </rdf:RDF>
  </metadata>
  <defs
     id="defs20" />
  <sodipodi:namedview
     pagecolor="#ffffff"
     bordercolor="#666666"
     borderopacity="1"
     objecttolerance="10"
     gridtolerance="10"
     guidetolerance="10"
     inkscape:pageopacity="0"
     inkscape:pageshadow="2"
     inkscape:window-width="2470"
     inkscape:window-height="1798"
     id="namedview18"
     showgrid="false"
     fit-margin-top="0"
     fit-margin-left="0"
     fit-margin-right="0"
     fit-margin-bottom="0"
     inkscape:zoom="7.552"
     inkscape:cx="29.123373"
     inkscape:cy="5.0566874"
     inkscape:window-x="0"
     inkscape:window-y="0"
     inkscape:window-maximized="0"
     inkscape:current-layer="svg16" />
  <g
     id="g10"
     transform="translate(-15.298276,-10.298276)">
    <g
       id="g8">
      <g
         id="g6">
        <g
           id="g4">
          <path
             d="m 74.75,45 q 0,-1.95 -1.4,-3.35 -1.4,-1.4 -3.35,-1.35 -1.95,-0.05 -3.35,1.35 L 54.75,53.6 V 15 q 0,-1.95 -1.4,-3.35 -1.4,-1.4 -3.35,-1.35 -1.95,-0.05 -3.35,1.35 -1.4,1.4 -1.35,3.35 V 53.6 L 33.35,41.65 q -1.4,-1.4 -3.35,-1.35 -1.95,-0.05 -3.35,1.35 -1.4,1.4 -1.35,3.35 -0.05,1.95 1.35,3.35 l 20,20 q 1.4,1.4 3.35,1.4 1.95,0 3.35,-1.4 l 20,-20 q 1.4,-1.4 1.4,-3.35 m 10,40 V 75 q 0,-1.95 -1.4,-3.35 -1.4,-1.4 -3.35,-1.35 -1.95,-0.05 -3.35,1.35 -1.4,1.4 -1.35,3.35 v 5.3 H 24.75 V 75 q 0,-1.95 -1.4,-3.35 -1.4,-1.4 -3.35,-1.35 -1.95,-0.05 -3.35,1.35 -1.4,1.4 -1.35,3.35 v 10 q -0.05,1.95 1.35,3.35 1.4,1.4 3.35,1.4 h 60 q 1.95,0 3.35,-1.4 1.4,-1.4 1.4,-3.35 z"
             id="path2"
             inkscape:connector-curvature="0"
             style="fill:#000000;stroke:none" />
        </g>
      </g>
    </g>
  </g>
</svg>
