<?xml version="1.0" encoding="UTF-8" standalone="no"?>
<svg
   xmlns:dc="http://purl.org/dc/elements/1.1/"
   xmlns:cc="http://creativecommons.org/ns#"
   xmlns:rdf="http://www.w3.org/1999/02/22-rdf-syntax-ns#"
   xmlns:svg="http://www.w3.org/2000/svg"
   xmlns="http://www.w3.org/2000/svg"
   xmlns:sodipodi="http://sodipodi.sourceforge.net/DTD/sodipodi-0.dtd"
   xmlns:inkscape="http://www.inkscape.org/namespaces/inkscape"
   xml:space="preserve"
   version="1.1"
   style="clip-rule:evenodd;fill-rule:evenodd;image-rendering:optimizeQuality;shape-rendering:geometricPrecision;text-rendering:geometricPrecision"
   viewBox="0 0 802.46005 687.53006"
   x="0px"
   y="0px"
   id="svg14"
   sodipodi:docname="noun_education_2950884.svg"
   width="802.46002"
   height="687.53003"
   inkscape:version="0.92.4 (5da689c313, 2019-01-14)"
   inkscape:export-filename="E:\projects\sfz-aichach\dist\img\src\noun_education_2950884.png"
   inkscape:export-xdpi="119.66314"
   inkscape:export-ydpi="119.66314"><metadata
     id="metadata18"><rdf:RDF><cc:Work
         rdf:about=""><dc:format>image/svg+xml</dc:format><dc:type
           rdf:resource="http://purl.org/dc/dcmitype/StillImage" /><dc:title></dc:title></cc:Work></rdf:RDF></metadata><sodipodi:namedview
     pagecolor="#ffffff"
     bordercolor="#666666"
     borderopacity="1"
     objecttolerance="10"
     gridtolerance="10"
     guidetolerance="10"
     inkscape:pageopacity="0"
     inkscape:pageshadow="2"
     inkscape:window-width="3840"
     inkscape:window-height="2066"
     id="namedview16"
     showgrid="false"
     fit-margin-top="0"
     fit-margin-left="0"
     fit-margin-right="0"
     fit-margin-bottom="0"
     inkscape:zoom="0.63072197"
     inkscape:cx="422.6591"
     inkscape:cy="-148.87721"
     inkscape:window-x="-11"
     inkscape:window-y="-11"
     inkscape:window-maximized="1"
     inkscape:current-layer="svg14" /><defs
     id="defs4"><style
       type="text/css"
       id="style2">
   
    .fil0 {fill:black}
   
  </style></defs><g
     id="g8"
     transform="translate(-22.1,-79.57)"><path
       class="fil0"
       d="m 582.79,79.57 c 73.03,0 132.23,59.21 132.23,132.24 0,73.02 -59.2,132.23 -132.23,132.23 -73.03,0 -132.24,-59.21 -132.24,-132.23 0,-73.03 59.21,-132.24 132.24,-132.24 z M 85.21,481.42 128.09,637.47 h 206.3 v 51.29 H 89.21 L 35.92,494.84 Z M 22.1,716.34 H 591.12 V 767.1 H 22.1 Z m 730.5,-328.4 c 43.21,34.94 71.96,111.35 71.96,173.81 0,113.54 0,177.66 0,177.66 H 620.2 V 601.82 c 0,0 -93.51,101.46 -220.47,81.1 -64.62,-10.36 -41.59,-73.75 5.07,-79.09 78.3,-8.97 165.42,-54.82 165.97,-120.88 0.85,-101.57 79.92,-177.43 181.83,-95.01 z"
       id="path6"
       inkscape:connector-curvature="0"
       style="fill:#000000" /></g></svg>