<?xml version="1.0" encoding="UTF-8" standalone="no"?>
<svg
   xmlns:dc="http://purl.org/dc/elements/1.1/"
   xmlns:cc="http://creativecommons.org/ns#"
   xmlns:rdf="http://www.w3.org/1999/02/22-rdf-syntax-ns#"
   xmlns:svg="http://www.w3.org/2000/svg"
   xmlns="http://www.w3.org/2000/svg"
   xmlns:sodipodi="http://sodipodi.sourceforge.net/DTD/sodipodi-0.dtd"
   xmlns:inkscape="http://www.inkscape.org/namespaces/inkscape"
   version="1.1"
   x="0px"
   y="0px"
   viewBox="0 0 96 80.764999"
   enable-background="new 0 0 96 96"
   xml:space="preserve"
   id="svg22"
   sodipodi:docname="noun_Bulletin Board_129738.svg"
   width="96"
   height="80.764999"
   inkscape:version="0.92.4 (5da689c313, 2019-01-14)"
   inkscape:export-filename="E:\projects\sfz-aichach\dist\img\src\noun_Bulletin Board_129738.png"
   inkscape:export-xdpi="999.64093"
   inkscape:export-ydpi="999.64093"><metadata
     id="metadata28"><rdf:RDF><cc:Work
         rdf:about=""><dc:format>image/svg+xml</dc:format><dc:type
           rdf:resource="http://purl.org/dc/dcmitype/StillImage" /><dc:title></dc:title></cc:Work></rdf:RDF></metadata><defs
     id="defs26" /><sodipodi:namedview
     pagecolor="#ffffff"
     bordercolor="#666666"
     borderopacity="1"
     objecttolerance="10"
     gridtolerance="10"
     guidetolerance="10"
     inkscape:pageopacity="0"
     inkscape:pageshadow="2"
     inkscape:window-width="3840"
     inkscape:window-height="2066"
     id="namedview24"
     showgrid="false"
     fit-margin-top="0"
     fit-margin-left="0"
     fit-margin-right="0"
     fit-margin-bottom="0"
     inkscape:zoom="5.5625733"
     inkscape:cx="33.725048"
     inkscape:cy="15.136485"
     inkscape:window-x="-11"
     inkscape:window-y="-11"
     inkscape:window-maximized="1"
     inkscape:current-layer="svg22" /><g
     id="g16"
     transform="translate(0,-7.617)"><path
       d="M 91.051,7.617 H 4.949 C 2.227,7.617 0,9.844 0,12.566 v 70.867 c 0,2.723 2.227,4.949 4.949,4.949 H 91.051 C 93.773,88.382 96,86.155 96,83.433 V 12.566 C 96,9.844 93.772,7.617 91.051,7.617 Z M 86.399,78.934 H 9.6 V 17.066 h 76.8 v 61.868 z"
       id="path2"
       inkscape:connector-curvature="0" /><rect
       x="75.005997"
       y="21.709"
       width="2.2320001"
       height="5.039"
       id="rect4" /><path
       d="m 77.73,24.598 v 2.648 H 74.515 V 24.598 H 56.661 V 51.735 H 79.373 V 24.598 Z M 74.207,47.43 h -12.38 v -1.787 h 12.38 z m 0,-5.502 h -12.38 v -1.787 h 12.38 z m 0,-5.5 h -12.38 v -1.789 h 12.38 z m 0,-5.502 h -12.38 v -1.787 h 12.38 z"
       id="path6"
       inkscape:connector-curvature="0" /><rect
       x="46.883999"
       y="43.952999"
       width="2.2320001"
       height="5.0370002"
       id="rect8" /><path
       d="M 49.607,47.154 V 49.49 H 46.392 V 47.154 H 31.207 V 74.291 H 53.918 V 47.154 Z m -0.854,22.834 h -12.38 v -1.789 h 12.38 z m 0,-5.502 h -12.38 v -1.787 h 12.38 z m 0,-5.502 h -12.38 v -1.787 h 12.38 z m 0,-5.502 h -12.38 v -1.787 h 12.38 z"
       id="path10"
       inkscape:connector-curvature="0" /><rect
       x="25.023001"
       y="18.938999"
       width="2.2320001"
       height="5.039"
       id="rect12" /><path
       d="m 27.748,21.709 v 2.77 h -3.215 v -2.77 H 16.627 V 45.9 H 36.874 V 21.709 Z M 32.27,42.064 H 21.232 V 40.47 H 32.27 Z m 0,-4.904 H 21.232 V 35.566 H 32.27 Z m 0,-4.906 H 21.232 V 30.66 H 32.27 Z m 0,-4.904 H 21.232 V 25.756 H 32.27 Z"
       id="path14"
       inkscape:connector-curvature="0" /></g></svg>