<?xml version="1.0" encoding="UTF-8" standalone="no"?>
<svg
   xmlns:dc="http://purl.org/dc/elements/1.1/"
   xmlns:cc="http://creativecommons.org/ns#"
   xmlns:rdf="http://www.w3.org/1999/02/22-rdf-syntax-ns#"
   xmlns:svg="http://www.w3.org/2000/svg"
   xmlns="http://www.w3.org/2000/svg"
   xmlns:sodipodi="http://sodipodi.sourceforge.net/DTD/sodipodi-0.dtd"
   xmlns:inkscape="http://www.inkscape.org/namespaces/inkscape"
   version="1.1"
   x="0px"
   y="0px"
   viewBox="0 0 357.04306 292.90624"
   xml:space="preserve"
   id="svg40"
   sodipodi:docname="noun_classroom_1926817.svg"
   width="357.04306"
   height="292.90625"
   inkscape:version="0.92.4 (5da689c313, 2019-01-14)"
   inkscape:export-filename="E:\projects\sfz-aichach\dist\img\src\noun_classroom_1926817.png"
   inkscape:export-xdpi="300"
   inkscape:export-ydpi="300"><metadata
     id="metadata46"><rdf:RDF><cc:Work
         rdf:about=""><dc:format>image/svg+xml</dc:format><dc:type
           rdf:resource="http://purl.org/dc/dcmitype/StillImage" /><dc:title></dc:title></cc:Work></rdf:RDF></metadata><defs
     id="defs44" /><sodipodi:namedview
     pagecolor="#ffffff"
     bordercolor="#666666"
     borderopacity="1"
     objecttolerance="10"
     gridtolerance="10"
     guidetolerance="10"
     inkscape:pageopacity="0"
     inkscape:pageshadow="2"
     inkscape:window-width="3840"
     inkscape:window-height="2066"
     id="namedview42"
     showgrid="false"
     fit-margin-top="0"
     fit-margin-left="0"
     fit-margin-right="0"
     fit-margin-bottom="0"
     inkscape:zoom="2.5783015"
     inkscape:cx="196.28743"
     inkscape:cy="37.123075"
     inkscape:window-x="-11"
     inkscape:window-y="-11"
     inkscape:window-maximized="1"
     inkscape:current-layer="svg40" /><g
     id="g34"><path
       d="M 124.547,5 H 337.548 V 148.002 H 124.547 V 97.225 c -1.707,0.656 -3.375,1.222 -4.999,1.703 V 161 h 223 V 0 h -223 v 78.687 c 1.671,-0.719 3.337,-1.541 4.999,-2.466 z"
       id="path2"
       inkscape:connector-curvature="0" /><rect
       x="230.882"
       y="140"
       width="16.666"
       height="4"
       id="rect4" /><rect
       x="253.215"
       y="140"
       width="16.666"
       height="4"
       id="rect6" /><rect
       x="31.705"
       y="150.431"
       transform="matrix(0.517,-0.856,0.856,0.517,-109.9201,108.3778)"
       width="18.745001"
       height="2.325"
       id="rect8" /><rect
       x="27.722"
       y="148.026"
       transform="matrix(0.5169,-0.8561,0.8561,0.5169,-109.7932,103.8345)"
       width="18.746"
       height="2.326"
       id="rect10" /><path
       d="m 18.68,166.61 c 3.099,0 5.785,-2.225 6.36,-5.318 l 7.431,4.488 -5.424,27.915 c 0,0 7.91,4.101 21.666,6.628 v 49.901 c 0,5.523 4.477,10 10,10 5.521,0 10,-4.477 10,-10 v -47.977 c 0.554,0.007 1.105,0.017 1.668,0.017 0.563,0 1.113,-0.009 1.666,-0.017 v 47.977 c 0,5.523 4.476,10 10,10 5.52,0 10,-4.477 10,-10 v -49.9 c 13.756,-2.528 21.667,-6.629 21.667,-6.629 L 95.113,97.96 c 0.398,0.055 0.807,0.104 1.221,0.151 1.849,0.211 3.847,0.344 6,0.346 0.45,0 0.898,-0.006 1.343,-0.016 0.005,0 0.01,-0.001 0.015,-0.001 13.609,-0.276 32.324,-6.12 51.231,-26.213 2,-2.115 2.301,-5.219 0.952,-7.633 l 8.104,-8.296 -2.861,-2.795 -8.176,8.371 c -2.467,-1.149 -5.492,-0.663 -7.465,1.423 -17.014,17.897 -31.785,21.827 -42.111,22.147 -0.001,0 -0.002,0 -0.002,0 -0.359,0.008 -0.701,0.012 -1.029,0.012 -1.973,0 -3.763,-0.147 -5.371,-0.366 C 94.9,84.808 93.144,84.403 91.775,84.002 90.56,83.648 89.644,83.299 89.071,83.06 88.785,82.94 88.586,82.849 88.476,82.797 88.421,82.771 88.39,82.755 88.38,82.752 h -10e-4 l -0.603,-0.319 -0.713,-0.189 c -0.111,-0.021 -1.301,-0.341 -3.201,-0.731 -0.2,9.572 -6.152,17.256 -13.48,17.256 -7.33,0 -13.28,-7.684 -13.48,-17.256 -1.245,0.256 -2.193,0.482 -2.723,0.613 -2.176,0.35 -10.284,2.493 -18.713,12.361 -4.918,5.731 -9.935,13.936 -14.238,25.729 L 17.16,117.759 0,146.166 l 12.979,7.841 c -0.262,1.713 -0.515,3.457 -0.751,5.253 -0.471,3.559 2.033,6.824 5.592,7.293 0.289,0.038 0.576,0.057 0.86,0.057 z m 56.345,-57.596 h 14.5 v 5 h -14.5 z m -43.391,20.994 23.263,14.05 -14.058,23.273 -15.324,-9.257 c 1.612,-11.225 3.741,-20.467 6.119,-28.066 z m -18.144,20.802 -9.371,-5.661 14.057,-23.27 2.035,1.229 c -2.608,7.712 -4.914,16.855 -6.721,27.702 z m 30.988,-46.831 -5.266,27.101 -6.62,-3.998 c 3.779,-11.106 8.07,-18.387 11.886,-23.103 z"
       id="path12"
       inkscape:connector-curvature="0" /><path
       d="m 82.034,72.089 c 4.522,-2.919 7.964,-7.524 9.28,-13.181 2.692,-11.563 -4.498,-23.117 -16.059,-25.811 -11.562,-2.691 -23.117,4.5 -25.811,16.061 -2.115,9.082 1.869,18.157 9.278,22.939 2.024,1.306 4.302,2.294 6.782,2.871 5.908,1.375 11.809,0.168 16.53,-2.879 z"
       id="path14"
       inkscape:connector-curvature="0" /><path
       d="m 128.797,244.764 h 33.998 c 6.617,0 12.002,5.383 12.002,12 v 24.207 c 1.849,-0.65 3.537,-1.469 5.068,-2.502 2.15,-1.467 3.929,-3.421 5.061,-5.648 1.145,-2.223 1.623,-4.63 1.617,-6.875 -0.017,-3.631 -1.112,-6.881 -2.596,-9.823 -2.257,-4.401 -5.482,-8.211 -8.98,-11.204 -1.758,-1.489 -3.586,-2.77 -5.543,-3.768 -1.969,-0.974 -4.047,-1.769 -6.707,-1.801 -0.263,0 -0.52,0.02 -0.774,0.05 H 129.65 c -0.254,-0.03 -0.512,-0.05 -0.773,-0.05 -3.533,0.077 -6.096,1.364 -8.623,2.892 -3.725,2.362 -7.207,5.715 -10.054,9.686 -2.782,3.987 -5.081,8.57 -5.151,14.018 -0.004,2.245 0.471,4.652 1.617,6.875 1.707,3.373 4.828,5.986 8.552,7.552 0.513,0.217 1.04,0.417 1.579,0.605 v -24.214 c 0,-6.618 5.383,-12 12,-12 z"
       id="path16"
       inkscape:connector-curvature="0" /><circle
       cx="154.052"
       cy="214.77699"
       r="20.91"
       id="circle18" /><path
       d="m 172.797,288.764 v -32 c 0,-5.522 -4.478,-10 -10,-10 h -34 c -5.523,0 -10,4.479 -10,10 v 32 c 0,5.523 54,5.523 54,0 z"
       id="path20"
       inkscape:connector-curvature="0" /><path
       d="m 333.217,239.351 c -0.26,0 -0.516,0.02 -0.769,0.049 h -10e-4 -32.293 c -0.256,-0.03 -0.514,-0.051 -0.777,-0.051 -3.534,0.077 -6.095,1.365 -8.623,2.891 -3.727,2.364 -7.205,5.716 -10.054,9.687 -2.783,3.987 -5.081,8.57 -5.149,14.02 -0.006,2.244 0.471,4.652 1.613,6.875 1.709,3.372 4.831,5.983 8.555,7.549 0.512,0.218 1.039,0.418 1.578,0.606 v -24.214 c 0,-6.617 5.383,-12 12,-12 h 33.998 c 6.617,0 12.002,5.383 12.002,12 v 24.207 c 1.849,-0.65 3.537,-1.469 5.069,-2.503 2.149,-1.465 3.927,-3.42 5.06,-5.647 1.147,-2.223 1.623,-4.629 1.617,-6.874 -0.019,-3.633 -1.111,-6.882 -2.594,-9.824 -2.26,-4.403 -5.483,-8.211 -8.98,-11.204 -1.761,-1.49 -3.589,-2.77 -5.545,-3.77 -1.969,-0.971 -4.047,-1.765 -6.707,-1.797 z"
       id="path22"
       inkscape:connector-curvature="0" /><circle
       cx="308.798"
       cy="214.77699"
       r="20.91"
       id="circle24" /><path
       d="m 343.297,256.764 c 0,-5.522 -4.478,-10 -10,-10 h -34 c -5.523,0 -10,4.479 -10,10 v 32 c 0,5.523 54,5.523 54,0 z"
       id="path26"
       inkscape:connector-curvature="0" /><path
       d="m 214.047,244.764 h 33.998 c 3.309,0 6.309,1.345 8.482,3.518 0.685,-0.686 1.318,-1.416 1.942,-2.183 2.746,-3.455 5.18,-7.862 7.54,-12.96 3.514,-7.633 6.722,-16.759 9.11,-25.658 2.375,-8.927 3.955,-17.482 3.976,-24.486 0,-0.708 -0.018,-1.396 -0.053,-2.064 -0.188,-3.584 -3.245,-6.338 -6.83,-6.151 -3.585,0.188 -6.339,3.246 -6.151,6.83 0.023,0.434 0.035,0.897 0.035,1.385 0.012,4.038 -0.861,10.078 -2.387,16.559 -2.274,9.747 -5.986,20.666 -9.805,28.784 -1.891,4.048 -3.846,7.413 -5.398,9.4 -0.626,0.819 -1.185,1.385 -1.51,1.662 H 214.9 c -0.254,-0.03 -0.512,-0.05 -0.773,-0.05 -3.533,0.077 -6.096,1.364 -8.623,2.892 -3.725,2.362 -7.207,5.715 -10.054,9.686 -2.782,3.987 -5.081,8.57 -5.151,14.018 -0.004,2.245 0.471,4.652 1.617,6.875 1.709,3.373 4.829,5.986 8.552,7.552 0.513,0.218 1.04,0.417 1.579,0.605 v -24.214 c 0,-6.618 5.383,-12 12,-12 z"
       id="path28"
       inkscape:connector-curvature="0" /><circle
       cx="231.048"
       cy="214.77699"
       r="20.91"
       id="circle30" /><path
       d="m 258.047,288.764 v -32 c 0,-5.522 -4.478,-10 -10,-10 h -34 c -5.523,0 -10,4.479 -10,10 v 32 c 0,5.523 54,5.523 54,0 z"
       id="path32"
       inkscape:connector-curvature="0" /></g></svg>