<?xml version="1.0" encoding="UTF-8" standalone="no"?>
<svg
   xmlns:dc="http://purl.org/dc/elements/1.1/"
   xmlns:cc="http://creativecommons.org/ns#"
   xmlns:rdf="http://www.w3.org/1999/02/22-rdf-syntax-ns#"
   xmlns:svg="http://www.w3.org/2000/svg"
   xmlns="http://www.w3.org/2000/svg"
   xmlns:sodipodi="http://sodipodi.sourceforge.net/DTD/sodipodi-0.dtd"
   xmlns:inkscape="http://www.inkscape.org/namespaces/inkscape"
   viewBox="0 0 42 42"
   x="0px"
   y="0px"
   version="1.1"
   id="svg30"
   sodipodi:docname="noun_Teacher_3188543.svg"
   width="42"
   height="42"
   inkscape:version="0.92.4 (5da689c313, 2019-01-14)"
   inkscape:export-filename="E:\projects\sfz-aichach\dist\img\src\noun_Teacher_3188543.png"
   inkscape:export-xdpi="2285.7144"
   inkscape:export-ydpi="2285.7144">
  <metadata
     id="metadata36">
    <rdf:RDF>
      <cc:Work
         rdf:about="">
        <dc:format>image/svg+xml</dc:format>
        <dc:type
           rdf:resource="http://purl.org/dc/dcmitype/StillImage" />
        <dc:title>Artboard 13</dc:title>
      </cc:Work>
    </rdf:RDF>
  </metadata>
  <defs
     id="defs34" />
  <sodipodi:namedview
     pagecolor="#ffffff"
     bordercolor="#666666"
     borderopacity="1"
     objecttolerance="10"
     gridtolerance="10"
     guidetolerance="10"
     inkscape:pageopacity="0"
     inkscape:pageshadow="2"
     inkscape:window-width="3840"
     inkscape:window-height="2066"
     id="namedview32"
     showgrid="false"
     fit-margin-top="0"
     fit-margin-left="0"
     fit-margin-right="0"
     fit-margin-bottom="0"
     inkscape:zoom="7.8666667"
     inkscape:cx="26.428562"
     inkscape:cy="-2.0535164"
     inkscape:window-x="-11"
     inkscape:window-y="-11"
     inkscape:window-maximized="1"
     inkscape:current-layer="svg30" />
  <title
     id="title2">Artboard 13</title>
  <g
     data-name="Your Icons"
     id="g24"
     transform="translate(-3,-3)">
    <path
       d="M 23,27 H 5 v -2 h 15 a 1,1 0 0 0 0,-2 H 5 V 5 h 23 v 14 a 1,1 0 0 0 2,0 V 4 A 1,1 0 0 0 29,3 H 4 A 1,1 0 0 0 3,4 v 24 a 1,1 0 0 0 1,1 h 19 a 1,1 0 0 0 0,-2 z"
       id="path4"
       inkscape:connector-curvature="0" />
    <path
       d="m 31.19,21.41 a 1,1 0 0 0 1.13,-0.84 c 1,-6.4 4.54,-6.57 4.68,-6.57 5.92,0 6,9.9 6,10 a 1,1 0 0 0 1,1 v 0 a 1,1 0 0 0 1,-1 c 0,-0.49 -0.09,-12 -8,-12 -0.22,0 -5.42,0.09 -6.65,8.28 a 1,1 0 0 0 0.84,1.13 z"
       id="path6"
       inkscape:connector-curvature="0" />
    <path
       d="m 37,24 c -1,0 -1.85,-1.72 -2,-2.32 a 1.002447,1.002447 0 1 0 -1.9,0.64 c 0.13,0.37 1.31,3.68 4,3.68 2.69,0 3.75,-2.28 4.11,-4 A 1.0054974,1.0054974 0 0 0 41,20 c -3.3,0 -5.08,-3.39 -5.11,-3.45 a 1,1 0 1 0 -1.78,0.9 8.92,8.92 0 0 0 5,4.28 C 38.91,22.63 38.37,24 37,24 Z"
       id="path8"
       inkscape:connector-curvature="0" />
    <path
       d="m 40.6,26.2 a 1,1 0 0 0 -1.15,0 4.62,4.62 0 0 1 -4.85,0 l -8,-6 a 1,1 0 0 0 -1.31,0.09 l -3,3 A 1,1 0 0 0 22,24.06 1,1 0 0 0 22.39,24.79 L 31,31.49 V 44 a 1,1 0 0 0 1,1 h 10 a 1,1 0 0 0 0,-2 H 33 V 31 a 1,1 0 0 0 -0.39,-0.79 l -8.1,-6.3 1.58,-1.59 7.36,5.51 a 6.66,6.66 0 0 0 6.48,0.37 L 43,30.5 V 39 h -2 v -5 a 1,1 0 0 0 -2,0 v 6 a 1,1 0 0 0 1,1 h 4 a 1,1 0 0 0 1,-1 V 30 a 1,1 0 0 0 -0.4,-0.8 z"
       id="path10"
       inkscape:connector-curvature="0" />
    <path
       d="m 22.29,19.71 a 1,1 0 0 0 1.42,0 1,1 0 0 0 0,-1.42 L 12.21,6.79 a 1.0040916,1.0040916 0 1 0 -1.42,1.42 l 8.58,8.57 a 4.41,4.41 0 0 0 0.92,4.93 1,1 0 0 0 1.42,0 1,1 0 0 0 0,-1.42 2.24,2.24 0 0 1 -0.7,-1.87 z"
       id="path12"
       inkscape:connector-curvature="0" />
    <path
       d="m 24,6 h -6 a 1,1 0 0 0 0,2 h 6 a 1,1 0 0 0 0,-2 z"
       id="path14"
       inkscape:connector-curvature="0" />
    <path
       d="M 25,10 A 1,1 0 0 0 24,9 h -3 a 1,1 0 0 0 0,2 h 3 a 1,1 0 0 0 1,-1 z"
       id="path16"
       inkscape:connector-curvature="0" />
    <path
       d="m 8,13 h 2 a 1,1 0 0 0 0,-2 H 8 a 1,1 0 0 0 0,2 z"
       id="path18"
       inkscape:connector-curvature="0" />
    <path
       d="m 8,16 h 5 a 1,1 0 0 0 0,-2 H 8 a 1,1 0 0 0 0,2 z"
       id="path20"
       inkscape:connector-curvature="0" />
    <path
       d="m 8,19 h 7 a 1,1 0 0 0 0,-2 H 8 a 1,1 0 0 0 0,2 z"
       id="path22"
       inkscape:connector-curvature="0" />
  </g>
</svg>
