<?xml version="1.0" encoding="UTF-8" standalone="no"?>
<svg
   xmlns:dc="http://purl.org/dc/elements/1.1/"
   xmlns:cc="http://creativecommons.org/ns#"
   xmlns:rdf="http://www.w3.org/1999/02/22-rdf-syntax-ns#"
   xmlns:svg="http://www.w3.org/2000/svg"
   xmlns="http://www.w3.org/2000/svg"
   xmlns:sodipodi="http://sodipodi.sourceforge.net/DTD/sodipodi-0.dtd"
   xmlns:inkscape="http://www.inkscape.org/namespaces/inkscape"
   version="1.1"
   x="0px"
   y="0px"
   viewBox="0 0 42.098999 90.000999"
   enable-background="new 0 0 100 100"
   xml:space="preserve"
   id="svg16"
   sodipodi:docname="noun_parent_1375547.svg"
   width="42.098999"
   height="90.000999"
   inkscape:export-filename="E:\projects\sfz-aichach\dist\img\src\noun_parent_1375547.png"
   inkscape:export-xdpi="1067.1987"
   inkscape:export-ydpi="1067.1987"
   inkscape:version="0.92.4 (5da689c313, 2019-01-14)"><metadata
     id="metadata22"><rdf:RDF><cc:Work
         rdf:about=""><dc:format>image/svg+xml</dc:format><dc:type
           rdf:resource="http://purl.org/dc/dcmitype/StillImage" /><dc:title></dc:title></cc:Work></rdf:RDF></metadata><defs
     id="defs20" /><sodipodi:namedview
     pagecolor="#ffffff"
     bordercolor="#666666"
     borderopacity="1"
     objecttolerance="10"
     gridtolerance="10"
     guidetolerance="10"
     inkscape:pageopacity="0"
     inkscape:pageshadow="2"
     inkscape:window-width="3840"
     inkscape:window-height="2066"
     id="namedview18"
     showgrid="false"
     fit-margin-top="0"
     fit-margin-left="0"
     fit-margin-right="0"
     fit-margin-bottom="0"
     inkscape:zoom="10.680141"
     inkscape:cx="-7.961237"
     inkscape:cy="27.971481"
     inkscape:window-x="-11"
     inkscape:window-y="-11"
     inkscape:window-maximized="1"
     inkscape:current-layer="svg16" /><g
     id="g10"
     transform="translate(-28.949,-5)"><circle
       cx="55.646"
       cy="14.229"
       r="9.2290001"
       id="circle2" /><path
       d="M 65.123,25.973 H 55.646 46.17 c -0.941,0 -1.827,0.226 -2.618,0.615 3.762,1.359 6.462,4.956 6.462,9.18 0,2.122 -0.688,4.082 -1.841,5.686 3.589,0.48 6.368,3.554 6.368,7.271 V 64.42 c 0,3.377 -2.291,6.229 -5.4,7.084 V 91.65 c 0,0.661 -0.103,1.298 -0.29,1.898 0.833,0.889 2.008,1.452 3.323,1.452 h 6.943 c 2.525,0 4.568,-2.047 4.568,-4.568 V 59.225 h 1.439 c 3.271,0 5.924,-2.654 5.924,-5.925 V 31.896 c 0.001,-3.272 -2.652,-5.923 -5.925,-5.923 z"
       id="path4"
       inkscape:connector-curvature="0" /><path
       d="M 51.541,64.42 V 48.724 c 0,-2.399 -1.947,-4.343 -4.346,-4.343 h -2.35 -4.6 -4.601 -2.349 c -2.4,0 -4.346,1.943 -4.346,4.343 V 64.42 c 0,2.399 1.945,4.345 4.344,4.345 h 1.055 V 91.65 c 0,1.85 1.498,3.351 3.35,3.351 h 5.092 c 1.852,0 3.35,-1.501 3.35,-3.351 V 68.765 h 1.057 c 0.141,0 0.273,-0.028 0.41,-0.041 2.202,-0.21 3.934,-2.045 3.934,-4.304 z"
       id="path6"
       inkscape:connector-curvature="0" /><path
       d="m 36.463,41.381 c 1.08,0.729 2.382,1.155 3.783,1.155 1.4,0 2.702,-0.426 3.782,-1.155 1.801,-1.217 2.985,-3.277 2.985,-5.613 0,-3.49 -2.643,-6.36 -6.034,-6.727 C 40.738,29.016 40.494,29 40.246,29 c -3.738,0 -6.77,3.029 -6.77,6.768 10e-4,2.336 1.185,4.396 2.987,5.613 z"
       id="path8"
       inkscape:connector-curvature="0" /></g></svg>