<?xml version="1.0" encoding="UTF-8" standalone="no"?>
<svg
   xmlns:dc="http://purl.org/dc/elements/1.1/"
   xmlns:cc="http://creativecommons.org/ns#"
   xmlns:rdf="http://www.w3.org/1999/02/22-rdf-syntax-ns#"
   xmlns:svg="http://www.w3.org/2000/svg"
   xmlns="http://www.w3.org/2000/svg"
   xmlns:sodipodi="http://sodipodi.sourceforge.net/DTD/sodipodi-0.dtd"
   xmlns:inkscape="http://www.inkscape.org/namespaces/inkscape"
   version="1.1"
   x="0px"
   y="0px"
   viewBox="0 0 62.789978 64"
   enable-background="new 0 0 76 76"
   xml:space="preserve"
   id="svg28"
   sodipodi:docname="noun_Video_Conference_2575786.svg"
   width="62.789978"
   height="64"
   inkscape:version="0.92.4 (5da689c313, 2019-01-14)"
   inkscape:export-filename="E:\projects\sfz-aichach\dist\img\src\noun_Video_Conference_2575786.png"
   inkscape:export-xdpi="1499.8572"
   inkscape:export-ydpi="1499.8572"><metadata
     id="metadata34"><rdf:RDF><cc:Work
         rdf:about=""><dc:format>image/svg+xml</dc:format><dc:type
           rdf:resource="http://purl.org/dc/dcmitype/StillImage" /><dc:title></dc:title></cc:Work></rdf:RDF></metadata><defs
     id="defs32" /><sodipodi:namedview
     pagecolor="#ffffff"
     bordercolor="#666666"
     borderopacity="1"
     objecttolerance="10"
     gridtolerance="10"
     guidetolerance="10"
     inkscape:pageopacity="0"
     inkscape:pageshadow="2"
     inkscape:window-width="3840"
     inkscape:window-height="2066"
     id="namedview30"
     showgrid="false"
     fit-margin-top="0"
     fit-margin-left="0"
     fit-margin-right="0"
     fit-margin-bottom="0"
     inkscape:zoom="7.0264084"
     inkscape:cx="-49.892733"
     inkscape:cy="-13.511801"
     inkscape:window-x="-11"
     inkscape:window-y="-11"
     inkscape:window-maximized="1"
     inkscape:current-layer="svg28" /><g
     id="g22"
     transform="translate(-6.605011,-6)"><path
       d="M 45.675018,59.230041 H 30.324982 L 25.425018,65 c -0.770019,0.910034 -0.940002,2.160034 -0.440002,3.23999 C 25.495026,69.330017 26.545013,70 27.745026,70 h 20.509948 c 1.200013,0 2.25,-0.669983 2.76001,-1.76001 0.5,-1.079956 0.330017,-2.329956 -0.440002,-3.23999 z"
       id="path2"
       inkscape:connector-curvature="0" /><path
       d="m 21.055878,20.600647 c 2.300048,0 4.164673,-2.645447 4.164673,-4.945557 0,-2.300048 -1.864624,-4.164611 -4.164673,-4.164611 -2.30011,0 -4.164673,1.864563 -4.164673,4.164611 0,2.30011 1.864563,4.945557 4.164673,4.945557 z"
       id="path4"
       inkscape:connector-curvature="0" /><path
       d="m 24.264984,21.280029 h -6.409973 c -2.580017,0 -4.73999,1.820008 -5.25,4.23999 v 0.150025 h 16.929993 c -0.450013,-2.5 -2.640015,-4.390015 -5.27002,-4.390015 z"
       id="path6"
       inkscape:connector-curvature="0" /><path
       d="m 21.055878,40.265991 c 2.300048,0 4.164673,-2.645447 4.164673,-4.945495 0,-2.30011 -1.864624,-4.164673 -4.164673,-4.164673 -2.30011,0 -4.164673,1.864563 -4.164673,4.164673 0,2.300048 1.864563,4.945495 4.164673,4.945495 z"
       id="path8"
       inkscape:connector-curvature="0" /><path
       d="m 29.62381,46.309631 c 0,-2.961792 -2.401062,-5.362854 -5.362854,-5.362854 h -6.410157 c -2.961791,0 -5.362853,2.401062 -5.362853,5.362854 v 1.024414 H 29.62381 Z"
       id="path10"
       inkscape:connector-curvature="0" /><path
       d="m 51.451385,22.506409 c 2.663941,0 4.823548,-3.903077 4.823548,-6.567017 0,-2.66394 -2.159607,-4.823547 -4.823548,-4.823547 -2.66394,0 -4.823547,2.159607 -4.823547,4.823547 0,2.663941 2.159607,6.567017 4.823547,6.567017 z"
       id="path12"
       inkscape:connector-curvature="0" /><path
       d="m 60.535675,30.585083 c 0,-3.210388 -2.602478,-5.812866 -5.812866,-5.812866 l -3.242615,3.356262 -3.300232,-3.356262 c -3.210388,0 -5.812927,2.602478 -5.812927,5.812866 v 1.631287 h 18.16864 z"
       id="path14"
       inkscape:connector-curvature="0" /><path
       d="m 69.394989,9.0800171 c 0,-1.6799927 -1.359985,-3.039978 -3.039978,-3.039978 H 35.504974 V 6 H 9.605011 c -1.6600342,0 -3,1.3500366 -3,3 v 45.190002 c 0,1.679993 1.3599854,3.040039 3.039978,3.040039 h 56.710022 c 1.679993,0 3.039978,-1.360046 3.039978,-3.040039 z M 33.504974,49.030029 H 10.605011 V 29.670044 h 22.899963 z m 0,-21.359985 H 10.605011 V 10.040039 h 22.899963 z m 5.200013,26.429993 c -0.372986,0.372985 -1.011902,0.398071 -1.409974,0 -0.38623,-0.386292 -0.386474,-1.033631 0,-1.420044 0.369996,-0.369995 1.039978,-0.369995 1.409974,0 0.398864,0.398864 0.399047,1.020996 0,1.420044 z M 65.394989,49.030029 H 35.504974 v -38.98999 h 29.890015 z"
       id="path16"
       inkscape:connector-curvature="0" /><rect
       x="39.656921"
       y="36.397339"
       width="23.588867"
       height="2"
       id="rect18" /><polygon
       points="50.01535,41.684448 50.01535,45.720581 53.982147,43.69519 "
       id="polygon20" /></g></svg>